<?xml version="1.0" encoding="utf-8"?>
<!-- Generator: Adobe Illustrator 16.0.0, SVG Export Plug-In . SVG Version: 6.00 Build 0)  -->
<!DOCTYPE svg PUBLIC "-//W3C//DTD SVG 1.1//EN" "http://www.w3.org/Graphics/SVG/1.1/DTD/svg11.dtd">
<svg version="1.1" xmlns="http://www.w3.org/2000/svg" xmlns:xlink="http://www.w3.org/1999/xlink" x="0px" y="0px" width="284px"
	 height="36px" viewBox="0 0 284 36" enable-background="new 0 0 284 36" xml:space="preserve">
<g id="Boundingbox">
	<rect fill="none" width="284" height="36"/>
</g>
<g id="Trapping">
	<g>
		<path fill="#FFFFFF" d="M19.558,34.817H0.639c-0.068-0.39-0.066-0.903,0.01-1.363c5.327-0.309,6.479-0.767,6.479-4.387V4.994
			c0-2.253-0.742-2.614-3.125-2.614H1.83C1.737,1.743,1.746,1.378,1.954,1.135C2.5,0.489,4.764,0.368,8.747,0.368H19.1
			c13.766,0,20.744,5.795,20.744,17.223C39.844,28.859,32.829,34.817,19.558,34.817L19.558,34.817z M13.184,2.736
			c-0.177,0-0.32,0.143-0.32,0.32v25.655c0,3.422,1.394,3.939,6.185,3.939c7.22,0,14.6-1.674,14.6-14.089
			c0-10.205-5.401-15.825-15.212-15.825H13.184L13.184,2.736z"/>
		<path fill="#FFFFFF" d="M81.425,34.817H65.154c-0.068-0.388-0.064-0.899,0.01-1.356c3.816-0.116,5.197-0.378,5.637-1.063
			c0.27-0.42,0.127-0.9-0.047-1.313l-3.214-7.702c-0.049-0.12-0.165-0.196-0.295-0.196H54.088c-0.134,0-0.254,0.083-0.299,0.206
			l-2.09,5.561c-0.724,1.852-0.989,2.849-0.544,3.5c0.402,0.588,1.28,0.708,2.474,0.708h4.129c0.122,0.633,0.083,1.084-0.122,1.342
			c-0.165,0.21-0.46,0.313-0.897,0.313h-14.33c-0.07-0.394-0.064-0.918,0.012-1.382c3.835-0.513,4.404-0.96,5.791-4.244L58.31,5.272
			c1.692-3.954,2.276-4.55,4.447-4.55h1.715c0.181,1.054,0.559,1.951,1.309,3.589l11.78,26.873c0.619,1.46,1.319,1.978,4.016,1.978
			h0.907c0.105,0.646,0.058,1.101-0.145,1.348C82.173,34.716,81.874,34.817,81.425,34.817L81.425,34.817z M60.516,7.124
			c0,0-0.002,0-0.004,0c-0.13,0-0.248,0.081-0.295,0.2l-5.304,13.26c-0.04,0.099-0.027,0.21,0.031,0.299
			c0.06,0.089,0.159,0.14,0.266,0.14h10.862c0.107,0,0.206-0.053,0.266-0.142c0.06-0.089,0.07-0.202,0.029-0.301L60.809,7.319
			C60.759,7.202,60.644,7.124,60.516,7.124L60.516,7.124z"/>
		<path fill="#FFFFFF" d="M101.875,34.817H86.607c-0.097-0.39-0.091-0.92,0.021-1.386c3.954-0.657,5.113-1.23,5.113-3.548V5.505
			c0-2.124-0.742-2.461-3.125-2.461H86.43c-0.091-0.526-0.037-0.903,0.161-1.15c0.266-0.334,0.845-0.505,1.72-0.505h14.334
			c0.066,0.383,0.064,0.965-0.006,1.365c-4.41,0.34-5.163,1.433-5.163,3.719V30.7c0,2.119,0.876,2.462,2.973,2.462h2.497
			c0.144,0.688,0.125,1.121-0.054,1.35C102.731,34.718,102.399,34.817,101.875,34.817L101.875,34.817z"/>
		<path fill="#FFFFFF" d="M135.323,34.966L121.337,7.299c-0.053-0.109-0.165-0.175-0.285-0.175c-0.021,0-0.043,0.002-0.064,0.006
			c-0.14,0.029-0.245,0.146-0.255,0.291l-1.632,22.898c-0.064,0.848-0.116,1.521,0.342,2.014c0.582,0.627,1.853,0.829,5.231,0.829
			h2.498c0.138,0.677,0.114,1.122-0.072,1.357c-0.157,0.202-0.468,0.299-0.949,0.299h-16.466c-0.074-0.453-0.074-0.911,0.002-1.363
			c5.46-0.33,6.112-1.409,6.277-3.752l2.092-23.967c0.054-0.588,0.074-1.203-0.336-1.669c-0.567-0.642-1.867-0.912-4.928-1.015
			c-0.086-0.479-0.029-0.852,0.175-1.116c0.281-0.363,0.856-0.546,1.71-0.546h10.106l12.713,24.358
			c0.058,0.105,0.165,0.171,0.285,0.171c0.002,0,0.004,0,0.006,0c0.12-0.002,0.229-0.071,0.283-0.181l11.694-24.349h11.639
			c0.105,0.452,0.104,0.91-0.002,1.361c-2.686,0.19-4.028,0.555-4.616,1.252c-0.432,0.511-0.407,1.139-0.349,1.688l2.446,24.888
			c0.175,1.888,1.285,2.073,4.92,2.548c0.06,0.77-0.002,1.188-0.21,1.417c-0.165,0.184-0.467,0.274-0.923,0.274h-17.759
			c-0.105-0.458-0.104-0.905,0.002-1.361l2.526-0.143c2.443-0.144,3.899-0.379,4.599-1.2c0.545-0.642,0.534-1.563,0.441-2.467
			L150.188,7.41c-0.015-0.142-0.121-0.258-0.264-0.283c-0.019-0.004-0.037-0.004-0.054-0.004c-0.122,0-0.235,0.07-0.289,0.182
			l-12.241,25.706C136.512,34.667,136.175,34.936,135.323,34.966L135.323,34.966z"/>
		<path fill="#FFFFFF" d="M195.612,34.818h-24.352c-0.054-0.427-0.083-0.895-0.009-1.367c4.659-0.309,6.12-1.021,6.12-4.589V5.505
			c0-2.119-0.92-2.461-3.124-2.461h-2.186c-0.089-0.526-0.037-0.905,0.161-1.152c0.266-0.336,0.846-0.505,1.72-0.505h15.607
			c0.064,0.383,0.063,0.965-0.006,1.365c-5.125,0.305-6.435,0.818-6.435,4.384v22.543c0,2.208,1.489,2.463,2.612,2.463h3.265
			c3.998,0,4.564-0.422,6.717-5.029l1.347-2.981c0.431,0.006,0.971,0.085,1.203,0.41c0.19,0.271,0.181,0.711-0.031,1.308
			C197.003,29.335,196.192,32.115,195.612,34.818L195.612,34.818z"/>
		<path fill="#FFFFFF" d="M231.466,34.816h-27.647c-0.102-0.453-0.1-0.909,0.004-1.36c5.3-0.313,6.446-0.766,6.446-4.39V5.505
			c0-2.125-0.73-2.464-3.073-2.464h-2.168c-0.061-0.576,0.008-0.934,0.214-1.175c0.272-0.318,0.861-0.479,1.75-0.479h23.979
			c0.144,2.014,0.418,4.294,0.797,6.616c0.116,0.718,0.039,1.24-0.227,1.554c-0.219,0.256-0.585,0.387-1.091,0.387
			c-0.035,0-0.072,0-0.11-0.002l-0.602-2.081c-0.888-3.185-2.067-4.157-5.049-4.157h-8.16c-0.177,0-0.321,0.144-0.321,0.32v13.108
			c0,0.177,0.145,0.32,0.321,0.32h5.355c1.754,0,2.141-0.685,2.305-2.12l0.318-2.318h0.333c0.462,0,0.743,0.079,0.909,0.256
			c0.213,0.227,0.294,0.664,0.252,1.34c-0.152,3.175-0.156,6.573-0.013,9.848c-0.175,0.048-0.376,0.074-0.578,0.074
			c-0.215,0-0.414-0.029-0.591-0.085c-0.657-3.835-1.351-4.525-2.936-4.525h-5.355c-0.177,0-0.321,0.144-0.321,0.32v8.976
			c0,2.021,0.614,2.924,4.247,2.924h4.386c4.001,0,4.565-0.425,6.717-5.031l1.344-2.979c0.416,0.006,0.938,0.085,1.174,0.412
			c0.199,0.276,0.199,0.718,0,1.311C232.876,29.274,232.044,32.131,231.466,34.816L231.466,34.816z"/>
		<path fill="#FFFFFF" d="M277.425,35.633c-4.839,0-7.827-1.101-11.419-4.207c-1.934-1.697-3.632-3.753-4.776-5.78
			c-1.329-2.389-1.545-2.61-4.768-2.61h-3.418c-0.176,0-0.32,0.145-0.32,0.32v7.497c0,1.792,0.771,2.309,3.433,2.309h2.309
			c0.055,0.741-0.011,1.146-0.214,1.371c-0.174,0.192-0.491,0.284-0.973,0.284h-15.792c-0.046-0.341-0.083-0.858-0.006-1.364
			c4.328-0.32,5.511-0.923,5.511-4.232V5.657c0-2.237-0.965-2.614-3.127-2.614h-2.193c-0.103-0.507-0.059-0.886,0.132-1.156
			c0.262-0.368,0.844-0.59,1.727-0.655c2.438-0.201,5.421-0.201,12.627-0.201c9.315,0,14.879,4.226,14.879,11.306
			c0,4.083-2.438,7.451-6.689,9.243c-0.101,0.041-0.174,0.134-0.192,0.24s0.019,0.216,0.099,0.291
			c0.04,0.033,3.853,3.541,5.778,5.111c6.629,5.32,9.009,5.916,13.355,5.938c0.075,0.463-0.011,0.841-0.253,1.155
			C282.456,35.189,280.535,35.633,277.425,35.633L277.425,35.633z M253.044,3.347c-0.176,0-0.32,0.145-0.32,0.32v16.729
			c0,0.176,0.145,0.319,0.32,0.319h2.449c4.78,0,9.449-0.619,9.449-8.02c0-6.292-3.323-9.349-10.161-9.349H253.044L253.044,3.347z"
			/>
	</g>
</g>
<g id="Daimler_Logotype">
	<g>
		<path fill="#003461" d="M4.004,2.699H1.556c-0.357-2.192-0.153-2.651,7.19-2.651H19.1c14.689,0,21.064,6.631,21.064,17.544
			c0,10.506-6.018,17.545-20.605,17.545H0.383c-0.153-0.51-0.153-1.326,0-1.988c5.457-0.307,6.426-0.664,6.426-4.082V4.994
			C6.809,3.006,6.299,2.699,4.004,2.699z M33.33,18.561c0-9.793-5.101-15.505-14.893-15.505h-5.253v25.655
			c0,3.111,1.122,3.619,5.865,3.619C27.77,32.33,33.33,29.527,33.33,18.561z"/>
		<path fill="#003461" d="M64.747,0.404c0.153,1.123,0.51,1.99,1.326,3.774l11.782,26.878c0.562,1.326,1.122,1.785,3.723,1.785
			h1.174c0.306,1.479,0,2.295-1.326,2.295H64.9c-0.153-0.51-0.153-1.326,0-1.988c5.559-0.154,6.121-0.613,5.559-1.939l-3.213-7.701
			H54.087l-2.091,5.559c-1.173,3.01-1.173,3.775,1.632,3.775h4.386c0.357,1.479,0,2.295-1.274,2.295H42.153
			c-0.152-0.51-0.152-1.326,0-1.988c3.928-0.512,4.386-0.818,5.764-4.082L58.014,5.148c1.684-3.928,2.347-4.744,4.743-4.744H64.747z
			 M66.073,20.703l-5.56-13.26l-5.304,13.26H66.073z"/>
		<path fill="#003461" d="M102.896,1.068c0.153,0.459,0.153,1.479,0,1.988c-4.438,0.307-5.101,1.275-5.101,3.417v24.226
			c0,1.785,0.511,2.143,2.652,2.143h2.754c0.357,1.479,0.204,2.295-1.326,2.295H86.372c-0.204-0.51-0.204-1.326,0-1.988
			c4.079-0.664,5.049-1.174,5.049-3.266V5.504c0-1.837-0.459-2.142-2.806-2.142h-2.447c-0.307-1.326,0-2.295,2.142-2.295H102.896z"
			/>
		<path fill="#003461" d="M161.649,1.068c0.205,0.662,0.205,1.326,0,1.988c-4.742,0.307-5.049,1.122-4.895,2.602l2.447,24.889
			c0.152,1.631,0.969,1.783,4.896,2.295c0.152,1.479,0,2.295-1.428,2.295h-18.004c-0.203-0.664-0.203-1.326,0-1.988l2.756-0.154
			c4.283-0.254,4.996-0.816,4.74-3.314L149.87,7.443l-12.241,25.706c-0.919,1.836-1.327,2.141-2.5,2.141L121.053,7.443
			l-1.632,22.899c-0.153,1.988-0.153,2.5,5.253,2.5h2.754c0.357,1.479,0.153,2.295-1.275,2.295h-16.728
			c-0.153-0.664-0.153-1.326,0-1.988c5.609-0.307,6.069-1.326,6.222-3.469l2.092-23.971c0.152-1.632-0.153-2.193-5.203-2.346
			c-0.306-1.173,0-2.295,2.143-2.295h10.302L137.782,25.6l11.782-24.532H161.649z"/>
		<path fill="#003461" d="M189.804,1.068c0.152,0.459,0.152,1.479,0,1.988c-5.355,0.307-6.375,0.766-6.375,4.08V29.68
			c0,1.682,0.867,2.143,2.295,2.143h3.264c3.775,0,4.283-0.256,6.426-4.846l1.428-3.162c1.48-0.051,2.244,0.561,1.684,2.143
			c-1.07,3.059-1.988,6.018-2.652,9.18h-24.889c-0.102-0.664-0.152-1.326,0-1.988c4.947-0.307,6.07-0.971,6.07-4.285V5.504
			c0-1.837-0.664-2.142-2.807-2.142H171.8c-0.305-1.326,0-2.295,2.143-2.295H189.804z"/>
		<path fill="#003461" d="M231.269,1.068c0.152,2.295,0.457,4.691,0.814,6.885c0.256,1.582-0.357,2.448-1.988,2.295l-0.664-2.295
			c-0.867-3.111-1.938-3.928-4.742-3.928h-8.16v13.108h5.355c1.529,0,1.836-0.511,1.988-1.837l0.357-2.601h0.611
			c1.02,0,1.582,0.357,1.479,1.938c-0.152,3.214-0.152,6.734,0,10.048c-0.459,0.203-1.223,0.254-1.783,0
			c-0.664-3.979-1.326-4.438-2.652-4.438h-5.355v8.977c0,1.836,0.459,2.602,3.928,2.602h4.385c3.775,0,4.285-0.256,6.428-4.846
			l1.428-3.162c1.479-0.051,2.193,0.611,1.682,2.143c-1.02,2.906-1.988,6.018-2.652,9.18h-28.152c-0.203-0.664-0.203-1.326,0-1.988
			c5.406-0.307,6.375-0.664,6.375-4.082V5.504c0-1.837-0.459-2.142-2.754-2.142h-2.447c-0.203-1.326,0-2.295,2.244-2.295H231.269z"
			/>
		<path fill="#003461" d="M243.864,3.363h-2.447c-0.357-1.326,0-2.295,2.09-2.448c2.449-0.203,5.51-0.203,12.65-0.203
			c9.791,0,15.197,4.641,15.197,11.627c0,4.284-2.652,7.753-6.885,9.537c0,0,3.824,3.52,5.764,5.102
			c6.732,5.406,8.977,5.865,13.412,5.865c0.461,1.785-0.814,3.111-6.221,3.111c-4.744,0-7.855-1.021-11.629-4.285
			c-1.684-1.479-3.52-3.518-4.846-5.865c-1.275-2.295-1.377-2.447-4.488-2.447h-3.418v7.496c0,1.479,0.461,1.99,3.113,1.99h2.6
			c0.152,1.479,0,2.295-1.479,2.295h-16.066c-0.102-0.561-0.152-1.326,0-1.988c4.438-0.307,5.459-0.818,5.459-3.928V5.658
			C246.671,3.667,245.956,3.363,243.864,3.363z M255.493,20.396c5.049,0,9.129-0.816,9.129-7.701c0-6.886-4.08-9.028-9.842-9.028
			h-1.736v16.729H255.493z"/>
	</g>
</g>
</svg>
